<?xml version="1.0" encoding="iso-8859-1"?>
<!-- Generator: Adobe Illustrator 19.0.0, SVG Export Plug-In . SVG Version: 6.00 Build 0)  -->
<svg version="1.1" id="Capa_1" xmlns="http://www.w3.org/2000/svg" xmlns:xlink="http://www.w3.org/1999/xlink" x="0px" y="0px"
	 viewBox="0 0 446.415 446.415" style="enable-background:new 0 0 446.415 446.415;" xml:space="preserve">
<g>
	<g>
		<path d="M443.215,199.258l-64-37.6l64-37.6c3.2-1.6,4-5.2,2.4-8c-0.4-0.8-1.2-1.6-2-2l-72.4-42.4l-72.8-42.8c-2-1.2-4-1.2-6,0
			l-69.2,40.8l-69.6-40.8c-1.6-1.2-4-1.2-6,0l-72.4,42.8l-72,42.4c-0.8,0.4-1.6,1.2-2,2c-1.6,2.8-0.8,6.4,2,8l64,37.6l-64.4,37.6
			c-2.8,1.6-3.6,5.2-2,8c0.4,0.8,1.2,1.6,2,2l69.6,40.8v79.2c0,2,1.2,4,2.8,4.8l144,83.2c0.4,0,0.4,0.4,0.8,0.4c0,0,0.4,0,0.4,0.4
			c0.8,0.4,1.2,0.4,2,0.4s1.2,0,2-0.4c0,0,0.4,0,0.4-0.4c0.4,0,0.4,0,0.8-0.4l143.6-83.2c2-1.2,2.8-3.2,2.8-4.8v-78.4l71.2-41.6
			c0.8-0.4,1.6-1.2,2-2C446.816,204.458,446.015,200.858,443.215,199.258z M295.616,40.458l69.6,40.8l64,37.6l-61.2,36l-69.6-40.8
			l-64-37.6L295.616,40.458z M229.215,86.458l63.6,37.6l64,37.6l-64,37.6l-20.4,12l-43.2-25.2V86.458z M17.215,118.858l64-37.6
			l69.6-40.8l61.2,36l-64,37.6l-69.6,40.8L17.215,118.858z M217.215,86.458v99.6l-43.2,25.2l-20.4-12l-64-37.6l64-37.6
			L217.215,86.458z M81.215,241.658l-64-37.6l61.2-36l69.6,40.8l64,37.6l-61.2,36l-69.2-40.4L81.215,241.658z M216.415,402.858
			l-132.4-76.8v-69.2l63.6,37.6c2,1.2,4,1.2,6,0l62.8-36.8V402.858z M223.215,240.058l-37.6-22l37.6-22l37.6,22L223.215,240.058z
			 M360.816,326.058l-132.4,76.8v-146.8l64.4,38c1.6,1.2,4,1.2,6,0l62-36.4V326.058z M365.215,241.658l-2,1.2l-67.6,39.6l-61.2-36
			l64-37.6l69.6-40.8l61.2,36L365.215,241.658z"/>
	</g>
</g>
<g>
</g>
<g>
</g>
<g>
</g>
<g>
</g>
<g>
</g>
<g>
</g>
<g>
</g>
<g>
</g>
<g>
</g>
<g>
</g>
<g>
</g>
<g>
</g>
<g>
</g>
<g>
</g>
<g>
</g>
</svg>
