<svg enable-background="new 0 0 24 24" height="512" viewBox="0 0 24 24" width="512" xmlns="http://www.w3.org/2000/svg"><g id="Color"><g><path d="m1.75 6h12.5c.965 0 1.75-.785 1.75-1.75v-2.5c0-.965-.785-1.75-1.75-1.75h-12.5c-.965 0-1.75.785-1.75 1.75v2.5c0 .965.785 1.75 1.75 1.75z" fill="#03a9f4"/></g><g><path d="m23.86 9.08v-.01c-.1-.24-.25-.45-.44-.6-.21-.2-.46-.34-.74-.41-.14-.04-.28-.06-.43-.06h-20.5c-.15 0-.29.02-.43.06-.28.07-.53.21-.74.41-.19.16-.34.37-.44.61-.09.21-.14.43-.14.67v12.5c0 .24.05.46.14.67.1.24.25.45.44.61.21.2.46.34.74.41.14.04.28.06.43.06h20.5c.15 0 .29-.02.43-.06.28-.07.53-.21.74-.41.19-.16.34-.37.44-.61.09-.21.14-.43.14-.67v-12.5c0-.24-.05-.46-.14-.67z" fill="#cfd8dc"/></g></g><g id="regular"><g><g><path d="m20.5 5c-1.378 0-2.5-1.121-2.5-2.5s1.122-2.5 2.5-2.5 2.5 1.121 2.5 2.5-1.122 2.5-2.5 2.5zm0-3.5c-.551 0-1 .448-1 1s.449 1 1 1 1-.448 1-1-.449-1-1-1z"/></g><g><path d="m23.25 6c-.192 0-.384-.073-.53-.22l-1.35-1.35c-.293-.293-.293-.768 0-1.061s.768-.293 1.061 0l1.35 1.35c.293.293.293.768 0 1.061-.147.147-.339.22-.531.22z"/></g></g><g><path d="m14.25 6h-12.5c-.965 0-1.75-.785-1.75-1.75v-2.5c0-.965.785-1.75 1.75-1.75h12.5c.965 0 1.75.785 1.75 1.75v2.5c0 .965-.785 1.75-1.75 1.75zm-12.5-4.5c-.138 0-.25.112-.25.25v2.5c0 .138.112.25.25.25h12.5c.138 0 .25-.112.25-.25v-2.5c0-.138-.112-.25-.25-.25z"/></g><g><path d="m22.25 24h-20.5c-.965 0-1.75-.785-1.75-1.75v-12.5c0-.965.785-1.75 1.75-1.75h20.5c.965 0 1.75.785 1.75 1.75v12.5c0 .965-.785 1.75-1.75 1.75zm-20.5-14.5c-.138 0-.25.112-.25.25v12.5c0 .138.112.25.25.25h20.5c.138 0 .25-.112.25-.25v-12.5c0-.138-.112-.25-.25-.25z"/></g><g><path d="m22.77 23.85c-.142 0-.285-.04-.412-.124l-21.541-14.2c-.346-.227-.441-.693-.213-1.039s.694-.441 1.039-.213l21.54 14.199c.346.228.441.693.213 1.039-.144.219-.383.338-.626.338z"/></g><g><path d="m1.23 23.85c-.244 0-.482-.118-.626-.337-.228-.346-.133-.812.213-1.039l21.54-14.199c.346-.228.811-.133 1.039.213s.133.812-.213 1.039l-21.54 14.199c-.127.084-.27.124-.413.124z"/></g></g></svg>